<svg height="51" viewBox="0 0 44 51" width="44" xmlns="http://www.w3.org/2000/svg"><g fill="#4e4e4e"><path d="m1.74498 5.47533c0 1.55802-.12464 2.06549-.44515 2.43941-.356711.32121-.819806.49884-1.29983.49857l.124642.89029c.744198.01006 1.466308-.25282 2.029878-.73894.30323-.36979.52888-.79685.66348-1.25573.13461-.45888.17541-.94017.11998-1.41516v-5.89377h-1.193v5.43972z" transform="translate(.54 21.36)"/><path d="m5.50204 4.76309c0 .66772 0 1.26422.05341 1.78059h-1.05945l-.07122-1.05945c-.2216.37486-.53851.68435-.9185.89702-.38.21267-.80953.32094-1.24493.31378-1.03274 0-2.26135-.56088-2.26135-2.84895v-3.8015651h1.193v3.5611851c0 1.23752.38283 2.06549 1.46009 2.06549.22163.00239.4415-.03951.64673-.12323s.39167-.20757.5484-.3643c.15672-.15672.28058-.34317.3643-.54839.08371-.20523.12561-.42511.12323-.64674v-3.98853h1.19299v4.72748z" transform="translate(5.68 21.37)"/><path d="m.0534178 2.27264c0-.82798 0-1.504604-.0534178-2.118909h1.06836l.05341 1.112869c.23803-.402065.5807-.732006.99148-.954646.41079-.2226395.87429-.3296326 1.3411-.30957305 1.58473 0 2.77773 1.32653905 2.77773 3.30299905 0 2.33258-1.43338 3.48997-2.9825 3.48997-.39649.01769-.79084-.06725-1.14489-.24661-.35405-.17937-.65581-.44708-.87608-.77723v3.56118h-1.1751922v-7.03334zm1.1751922 1.73608c.00323.16154.02111.32245.05342.48076.10101.39531.33096.74565.65345.99558.3225.24994.71913.3852 1.12714.38438 1.25532 0 1.99427-1.02384 1.99427-2.51064 0-1.29983-.69443-2.412704-1.94975-2.412704-.49678.040681-.96166.261164-1.30749.620104s-.54886.8317-.57104 1.32965z" transform="translate(13.39 21.26)"/><path d="m1.31764.0178059 1.43338 3.8371841c.15135.42734.3116.94371.41844 1.32654.12464-.39173.25818-.8903.41844-1.35325l1.29983-3.8104741h1.25532l-1.78059 4.6295441c-.8903 2.22574-1.43338 3.37423-2.25246 4.06866-.41255.37682-.91552.64057-1.460083.76565l-.293798-.99713c.380767-.12511.734261-.32149 1.041651-.57869.43433-.35396.77901-.8054 1.00603-1.31764.04859-.08871.08171-.18506.09793-.2849-.01012-.10744-.03716-.2126-.08012-.3116l-2.42161-5.9917h1.29983z" transform="translate(20.43 21.39)"/><path d="m2.19013 0v1.86962h1.70937v.8903h-1.70937v3.50777c0 .80127.23148 1.26422.8903 1.26422.23399.00383.46746-.02311.69443-.08012l.05342.89029c-.34034.11791-.69947.17223-1.05946.16026-.2384.01492-.47721-.02191-.70004-.10797s-.4244-.21931-.59089-.3906c-.36264-.48504-.528064-1.08946-.46295-1.69156v-3.56119h-1.01494v-.8903h1.03274v-1.584728z" transform="translate(27.55 19.54)"/><path d="m1.17716 3.57899c-.02416.30194.01752.60552.12217.88977s.26977.54238.48396.75656c.21418.21419.47231.37931.75656.48396s.58783.14633.88977.12217c.61071.01366 1.21744-.10162 1.78059-.33832l.20477.8903c-.69105.28466-1.43413.42115-2.18123.40063-.43554.02982-.87237-.03492-1.28053-.18979-.40817-.15486-.778-.39618-1.084149-.70739-.306143-.31122-.541348-.68498-.68948-1.09563-.1481326-.41066-.2056872-.84849-.1687162-1.28348 0-1.95865 1.1662852-3.50777 3.0715252-3.50777 2.13671 0 2.67089 1.86962 2.67089 3.06262.01142.18382.01142.36817 0 .55199h-4.60283zm3.48997-.89029c.03436-.23803.0173-.48065-.05004-.71152-.06733-.23087-.18337-.44463-.34029-.62687-.15693-.18223-.35109-.32871-.56941-.429566-.21832-.100854-.45573-.153738-.69621-.155088-.48917.035408-.94747.252224-1.28509.607964-.33762.35573-.53021.82473-.54002 1.31508z" transform="translate(32.47 21.29)"/><path d="m.0534178 2.19228c0-.76565 0-1.424474-.0534178-2.029876h1.06836v1.273126h.05341c.11214-.39294.34383-.741216.66291-.996481.31908-.255266.70972-.404853 1.11769-.4279952.11229-.01473839.22602-.01473839.33831 0v1.1128762c-.13606-.01576-.27348-.01576-.40954 0-.40414.01565-.78877.17789-1.08204.45642-.29327.27852-.47512.65427-.51159 1.05708-.03329.18217-.05116.36682-.05341.55198v3.46326h-1.17519703v-4.45149z" transform="translate(39.98 21.24)"/></g><path d="m6.03059 2.83565c.03656.59811-.10574 1.19356-.40879 1.7105-.30305.51695-.75311.93198-1.29287 1.19224-.53976.26025-1.14477.35394-1.73796.26914-.59319-.08481-1.14771-.34427-1.592922-.74534-.445211-.40106-.760958-.92558-.9070173-1.50673-.1460594-.58115-.1158198-1.19263.0868663-1.75653.202686-.5639.568644-1.054709 1.051253-1.409893.48261-.355184 1.06003-.5586684 1.65869-.58453157.39251-.02159863.78542.03460897 1.15612.16539057.37071.130781.71191.333557 1.00398.596665.29206.263109.52924.581359.69788.936449s.26542.74002.28477 1.13264z" fill="#767677" transform="translate(33.48 .69)"/><path d="m18.6962 7.12238c-8.0126 0-15.05489-2.87566-18.6962-7.12238 1.41284 3.82041 3.96215 7.1163 7.30479 9.44404 3.34261 2.32776 7.31821 3.57556 11.39141 3.57556 4.0733 0 8.0488-1.2478 11.3915-3.57556 3.3426-2.32774 5.8919-5.62363 7.3048-9.44404-3.6324 4.24672-10.648 7.12238-18.6963 7.12238z" fill="#f37726" transform="translate(3.21 31.27)"/><path d="m18.6962 5.89725c8.0127 0 15.055 2.87566 18.6963 7.12235-1.4129-3.82038-3.9622-7.11627-7.3048-9.44401-3.3427-2.32774-7.3182-3.57559-11.3915-3.57559-4.0732 0-8.0488 1.24785-11.39141 3.57559-3.34264 2.32774-5.89195 5.62363-7.30479 9.44401 3.64131-4.25559 10.648-7.12235 18.6962-7.12235z" fill="#f37726" transform="translate(3.21 4.88)"/><path d="m7.59576 3.56656c.047.75336-.13134 1.50366-.51229 2.1553-.38096.65164-.94728 1.17512-1.62681 1.50375s-1.44151.44753-2.18885.34155c-.74735-.10599-1.44623-.43205-2.0076-.93665-.561371-.5046-.959816-1.1649-1.144573-1.89676-.1847561-.73187-.1474589-1.50216.10714-2.21276.254599-.71059.714973-1.3293 1.322463-1.777305.6075-.448007 1.33461-.7050255 2.0887-.73830911.49399-.02642299.98835.04474141 1.45484.20942711.46648.164687.89595.419667 1.26386.750376.36791.330711.66707.730661.88036 1.177021.2133.44635.33657.93036.36276 1.42436z" fill="#9e9e9e" transform="translate(3.28 43.09)"/><path d="m2.25061 4.37943c-.43175.01192-.85739-.10408-1.22339-.33341-.365996-.22934-.656014-.56178-.833579-.9555-.1775648-.39373-.2347488-.83117-.1643606-1.25731s.2652056-.82196.5599526-1.137668c.294748-.315712.676267-.537226 1.096577-.6366843.4203-.0994582.86063-.0724199 1.26562.0777143.40498.150135.75653.416662 1.01043.766064.25391.349404.39884.766084.41656 1.197634.01687.58353-.19711 1.15017-.59549 1.57688-.39838.42672-.94901.67908-1.53232.70228z" fill="#616262" transform="translate(1.87 5.43)"/></svg>